<mxfile host="drawio-plugin" modified="2022-06-05T13:21:24.027Z" agent="5.0 (Macintosh; Intel Mac OS X 12_3_1) AppleWebKit/537.36 (KHTML, like Gecko) Chrome/89.0.4389.114 Safari/537.36" etag="Ohe8VarnHT45nwgtJb4D" version="15.5.4" type="embed"><diagram id="23iRSUPoRavnBvh4doch" name="Page-1"><mxGraphModel dx="1587" dy="850" grid="1" gridSize="10" guides="1" tooltips="1" connect="1" arrows="1" fold="1" page="1" pageScale="1" pageWidth="827" pageHeight="1169" background="#F4F1DE" math="0" shadow="0"><root><mxCell id="0"/><mxCell id="1" parent="0"/><mxCell id="26" value="touch / camera button" style="edgeStyle=orthogonalEdgeStyle;rounded=0;orthogonalLoop=1;jettySize=auto;html=1;entryX=0.5;entryY=0;entryDx=0;entryDy=0;labelBackgroundColor=#F4F1DE;strokeColor=#E07A5F;fontColor=#393C56;" parent="1" source="24" target="38" edge="1"><mxGeometry relative="1" as="geometry"/></mxCell><mxCell id="34" style="edgeStyle=orthogonalEdgeStyle;rounded=0;orthogonalLoop=1;jettySize=auto;html=1;entryX=0.5;entryY=0;entryDx=0;entryDy=0;labelBackgroundColor=#F4F1DE;strokeColor=#E07A5F;fontColor=#393C56;" parent="1" source="24" target="33" edge="1"><mxGeometry relative="1" as="geometry"><Array as="points"><mxPoint x="210" y="430"/><mxPoint x="570" y="430"/></Array></mxGeometry></mxCell><mxCell id="40" style="edgeStyle=orthogonalEdgeStyle;rounded=0;orthogonalLoop=1;jettySize=auto;html=1;entryX=0.5;entryY=0;entryDx=0;entryDy=0;labelBackgroundColor=#F4F1DE;strokeColor=#E07A5F;fontColor=#393C56;" parent="1" source="24" target="41" edge="1"><mxGeometry relative="1" as="geometry"><mxPoint x="69.99999999999989" y="550" as="targetPoint"/></mxGeometry></mxCell><mxCell id="24" value="Home" style="rounded=0;whiteSpace=wrap;html=1;fillColor=#F2CC8F;strokeColor=#E07A5F;fontColor=#393C56;" parent="1" vertex="1"><mxGeometry x="100" y="460" width="120" height="60" as="geometry"/></mxCell><mxCell id="29" value="5 sec" style="edgeStyle=orthogonalEdgeStyle;rounded=0;orthogonalLoop=1;jettySize=auto;html=1;labelBackgroundColor=#F4F1DE;strokeColor=#E07A5F;fontColor=#393C56;" parent="1" source="25" target="27" edge="1"><mxGeometry x="-0.6" y="20" relative="1" as="geometry"><Array as="points"><mxPoint x="160" y="840"/><mxPoint x="250" y="840"/></Array><mxPoint as="offset"/></mxGeometry></mxCell><mxCell id="48" style="edgeStyle=orthogonalEdgeStyle;rounded=0;orthogonalLoop=1;jettySize=auto;html=1;entryX=0.5;entryY=0;entryDx=0;entryDy=0;labelBackgroundColor=#F4F1DE;strokeColor=#E07A5F;fontColor=#393C56;" parent="1" source="25" target="47" edge="1"><mxGeometry relative="1" as="geometry"><Array as="points"><mxPoint x="160" y="840"/><mxPoint x="50" y="840"/></Array></mxGeometry></mxCell><mxCell id="25" value="Countdown" style="rounded=0;whiteSpace=wrap;html=1;fillColor=#F2CC8F;strokeColor=#E07A5F;fontColor=#393C56;" parent="1" vertex="1"><mxGeometry x="100" y="730" width="120" height="60" as="geometry"/></mxCell><mxCell id="30" value="print" style="edgeStyle=orthogonalEdgeStyle;rounded=0;orthogonalLoop=1;jettySize=auto;html=1;labelBackgroundColor=#F4F1DE;strokeColor=#E07A5F;fontColor=#393C56;" parent="1" source="27" edge="1"><mxGeometry x="-0.6923" y="20" relative="1" as="geometry"><mxPoint x="250" y="980" as="targetPoint"/><Array as="points"><mxPoint x="250" y="950"/><mxPoint x="250" y="950"/></Array><mxPoint as="offset"/></mxGeometry></mxCell><mxCell id="31" value="to home" style="edgeStyle=orthogonalEdgeStyle;rounded=0;orthogonalLoop=1;jettySize=auto;html=1;entryX=1;entryY=0.5;entryDx=0;entryDy=0;labelBackgroundColor=#F4F1DE;strokeColor=#E07A5F;fontColor=#393C56;" parent="1" source="27" target="24" edge="1"><mxGeometry x="0.1605" relative="1" as="geometry"><Array as="points"><mxPoint x="420" y="900"/><mxPoint x="420" y="490"/></Array><mxPoint as="offset"/></mxGeometry></mxCell><mxCell id="32" value="to home&lt;br&gt;(+delete)" style="edgeStyle=orthogonalEdgeStyle;rounded=0;orthogonalLoop=1;jettySize=auto;html=1;entryX=1;entryY=0.5;entryDx=0;entryDy=0;labelBackgroundColor=#F4F1DE;strokeColor=#E07A5F;fontColor=#393C56;" parent="1" source="27" target="24" edge="1"><mxGeometry x="-0.013" y="-10" relative="1" as="geometry"><mxPoint x="210" y="920" as="targetPoint"/><Array as="points"><mxPoint x="450" y="900"/><mxPoint x="450" y="490"/></Array><mxPoint as="offset"/></mxGeometry></mxCell><mxCell id="35" value="to gallery" style="edgeStyle=orthogonalEdgeStyle;rounded=0;orthogonalLoop=1;jettySize=auto;html=1;entryX=0.5;entryY=1;entryDx=0;entryDy=0;labelBackgroundColor=#F4F1DE;strokeColor=#E07A5F;fontColor=#393C56;" parent="1" source="27" target="33" edge="1"><mxGeometry relative="1" as="geometry"><Array as="points"><mxPoint x="210" y="900"/><mxPoint x="690" y="900"/></Array></mxGeometry></mxCell><mxCell id="36" value="repeat&lt;br&gt;(+ delete)" style="edgeStyle=orthogonalEdgeStyle;rounded=0;orthogonalLoop=1;jettySize=auto;html=1;entryX=1;entryY=0.5;entryDx=0;entryDy=0;labelBackgroundColor=#F4F1DE;strokeColor=#E07A5F;fontColor=#393C56;" parent="1" source="27" target="25" edge="1"><mxGeometry relative="1" as="geometry"><Array as="points"><mxPoint x="380" y="900"/><mxPoint x="380" y="760"/></Array></mxGeometry></mxCell><mxCell id="37" value="repeat" style="edgeStyle=orthogonalEdgeStyle;rounded=0;orthogonalLoop=1;jettySize=auto;html=1;entryX=1;entryY=0.5;entryDx=0;entryDy=0;labelBackgroundColor=#F4F1DE;strokeColor=#E07A5F;fontColor=#393C56;" parent="1" source="27" target="25" edge="1"><mxGeometry relative="1" as="geometry"><Array as="points"><mxPoint x="340" y="900"/><mxPoint x="340" y="760"/></Array></mxGeometry></mxCell><mxCell id="27" value="EndResult&lt;br&gt;(+ edit possibility)" style="rounded=0;whiteSpace=wrap;html=1;fillColor=#F2CC8F;strokeColor=#E07A5F;fontColor=#393C56;" parent="1" vertex="1"><mxGeometry x="190" y="870" width="120" height="60" as="geometry"/></mxCell><mxCell id="33" value="Gallery" style="rounded=0;whiteSpace=wrap;html=1;fillColor=#f8cecc;strokeColor=#b85450;" parent="1" vertex="1"><mxGeometry x="510" y="660" width="120" height="60" as="geometry"/></mxCell><mxCell id="51" value="tripple" style="edgeStyle=orthogonalEdgeStyle;rounded=0;orthogonalLoop=1;jettySize=auto;html=1;labelBackgroundColor=#F4F1DE;strokeColor=#E07A5F;fontColor=#393C56;" parent="1" source="38" target="44" edge="1"><mxGeometry relative="1" as="geometry"/></mxCell><mxCell id="53" value="single" style="edgeStyle=orthogonalEdgeStyle;rounded=0;orthogonalLoop=1;jettySize=auto;html=1;entryX=0.5;entryY=0;entryDx=0;entryDy=0;labelBackgroundColor=#F4F1DE;strokeColor=#E07A5F;fontColor=#393C56;" parent="1" source="38" target="25" edge="1"><mxGeometry relative="1" as="geometry"><Array as="points"><mxPoint x="250" y="590"/><mxPoint x="250" y="720"/><mxPoint x="160" y="720"/></Array></mxGeometry></mxCell><mxCell id="38" value="choose mode" style="rounded=0;whiteSpace=wrap;html=1;fillColor=#f8cecc;strokeColor=#b85450;" parent="1" vertex="1"><mxGeometry x="100" y="560" width="120" height="60" as="geometry"/></mxCell><mxCell id="41" value="settings" style="rounded=0;whiteSpace=wrap;html=1;fillColor=#f8cecc;strokeColor=#b85450;" parent="1" vertex="1"><mxGeometry x="-70" y="560" width="120" height="60" as="geometry"/></mxCell><mxCell id="52" value="" style="edgeStyle=orthogonalEdgeStyle;rounded=0;orthogonalLoop=1;jettySize=auto;html=1;labelBackgroundColor=#F4F1DE;strokeColor=#E07A5F;fontColor=#393C56;" parent="1" source="44" target="25" edge="1"><mxGeometry relative="1" as="geometry"/></mxCell><mxCell id="44" value="template" style="rounded=0;whiteSpace=wrap;html=1;fillColor=#f8cecc;strokeColor=#b85450;" parent="1" vertex="1"><mxGeometry x="100" y="650" width="120" height="60" as="geometry"/></mxCell><mxCell id="49" style="edgeStyle=orthogonalEdgeStyle;rounded=0;orthogonalLoop=1;jettySize=auto;html=1;entryX=0;entryY=0.5;entryDx=0;entryDy=0;labelBackgroundColor=#F4F1DE;strokeColor=#E07A5F;fontColor=#393C56;" parent="1" source="47" target="44" edge="1"><mxGeometry relative="1" as="geometry"><Array as="points"><mxPoint x="40" y="790"/><mxPoint x="40" y="680"/></Array></mxGeometry></mxCell><mxCell id="47" value="PartResult" style="rounded=0;whiteSpace=wrap;html=1;fillColor=#f8cecc;strokeColor=#b85450;" parent="1" vertex="1"><mxGeometry x="-10" y="870" width="120" height="60" as="geometry"/></mxCell></root></mxGraphModel></diagram></mxfile>